<svg width="20" height="19" viewBox="0 0 20 19" fill="none" xmlns="http://www.w3.org/2000/svg">
<path d="M19.02 18.0085L13.7052 12.6712C14.9758 11.1398 15.607 9.17827 15.4677 7.19412C15.3285 5.20997 14.4294 3.35566 12.9573 2.01636C11.4852 0.677057 9.55325 -0.0443038 7.56267 0.00210838C5.57209 0.0485206 3.67591 0.859139 2.26798 2.26559C0.860043 3.67204 0.0485717 5.56623 0.0021106 7.55472C-0.0443505 9.5432 0.67777 11.4731 2.01848 12.9437C3.3592 14.4142 5.21545 15.3123 7.20169 15.4515C9.18793 15.5906 11.1515 14.9601 12.6845 13.6908L18.0274 19L19.02 18.0085ZM1.42148 7.74879C1.42148 6.49707 1.79305 5.27346 2.4892 4.23269C3.18535 3.19193 4.17481 2.38075 5.33247 1.90174C6.49012 1.42272 7.76398 1.29739 8.99294 1.54159C10.2219 1.78579 11.3508 2.38855 12.2368 3.27365C13.1228 4.15875 13.7262 5.28643 13.9707 6.5141C14.2151 7.74177 14.0897 9.01428 13.6102 10.1707C13.1306 11.3272 12.3186 12.3156 11.2767 13.011C10.2349 13.7064 9.00998 14.0776 7.75695 14.0776C6.07668 14.0776 4.46523 13.4108 3.27709 12.2239C2.08896 11.037 1.42148 9.42729 1.42148 7.74879Z" fill="#000"/>
</svg>
